<?xml version="1.0" standalone="yes"?>
<svg xmlns="http://www.w3.org/2000/svg" width="558" height="529">
<path style="fill:#fdfdfd; stroke:none;" d="M0 0L0 529L558 529L558 0L0 0z"/>
<path style="fill:#a59682; stroke:none;" d="M109 206L108 252L109 252C112.046 241.696 113.163 215.922 109 206z"/>
<path style="fill:#686664; stroke:none;" d="M110 206L108 357C122.165 357.608 132.191 364.339 145 369L139 375L154 374L146 370L175.062 343.961L176 322L177 322L177 343C181.837 338.263 180 329.358 180 323L182 323L182 339L183 339L183 324C189.223 324.838 193.205 326.23 199 323L188 335L197 335C198.698 348.432 196.988 368.885 203.178 380.996C209.564 393.49 235.125 399.948 248 401L248 408L249 408L249 402L266 404L266 408L268 405L276 408L277 408C284.143 402.589 303.053 407.014 312 407C333.634 406.965 356.393 404.12 377 397.329C385.823 394.422 396.19 390.528 402 383C374.608 383 347.374 384 320 384C314.007 384 297.077 387.825 292.742 383.397C287.901 378.451 291.079 363.539 290 357L312 357L312 355L302 356L299 351C294.611 353.828 291.527 353.248 290 348L297 350L300 341L299 341L296 342L291 345L291 340L290 340C290.3 343.864 291.089 345.348 295 346L295 347C286.625 346.363 285.174 337.396 294 336L294 335L290 335C290 321.898 286.926 312.008 282 300L286 300L286 299C269 299.728 256.785 286.081 243 277L245 280L222 280C225.569 283.603 231.261 283.066 236 282C239.957 290.922 242.339 296.99 252 301L252 303C235.589 306.092 219.596 309.481 205 318L202 282L201 281C194.229 282.471 187.605 279.682 181 278.207C166.606 274.992 152.444 270.577 138 267.601C128.303 265.603 123.483 262.769 114 267L114 252C121.971 253.945 121 246.921 121 241L121 206L116 206L116 252L115 252L115 206L114 206L114 252L113 252L113 206L112 206L112 251L111 251C111 238.258 114.91 217.701 110 206z"/>
<path style="fill:#a59682; stroke:none;" d="M111 206L111 251L112 251C112 238.258 115.91 217.701 111 206M113 206L113 252L114 252C114 238.997 118.01 217.939 113 206M115 206L115 252L116 252C116 238.997 120.01 217.939 115 206z"/>
<path style="fill:#322521; stroke:none;" d="M121 206L121 240C121 246.281 122.021 252.67 114 252L114 267C140.53 258.827 172.391 281.427 200 282L200 281C179.494 273.033 156.54 249.935 133 259L133 258C147.769 251.828 161.553 242.653 176 235.653C180.552 233.447 185.408 233.447 190 231C193.887 228.929 207.593 218.943 209 226L217 223L217 221L211 219L211 218L216 218L216 206L131 206L131 253L130 253L130 206L121 206z"/>
<path style="fill:#686664; stroke:none;" d="M130 206L130 253L131 253C131 239.735 135.109 218.177 130 206M216 206L216 218L211 218L211 219L224 227L229 223C233.233 223.242 235.701 222.147 237 218L223 216L223 206L222 206L222 215L219 215L219 206L216 206z"/>
<path style="fill:#322521; stroke:none;" d="M219 206L219 215L222 215L222 206L219 206M223 206L223 216L237 220L241 219L241 206L223 206z"/>
<path style="fill:#686664; stroke:none;" d="M241 206L241 219L242 219L241 206z"/>
<path style="fill:#a59682; stroke:none;" d="M242 206L242 219L246 218L248.675 228.718L239.996 231.343L221 240C227.572 242.909 238.759 247.524 246 246.201C257.208 244.155 266.534 235.038 278 233L278 232L264 235.081L249 232C255.413 226.731 264.707 225.224 270.566 219.366C276.292 213.642 269.999 207.67 264 207L264 208L267 209C263.984 210.005 262.295 210.821 263 208L260 206L259 206L258 211L262 210L262 211L254 214L254 213L257 212L257 211L249 215L249 206L248 206L248 216L247 216L247 206L244 206L244 218L243 218L242 206z"/>
<path style="fill:#686664; stroke:none;" d="M243 206L243 218L244 218L243 206M247 206L247 216L248 216L247 206M249 206L249 215C253.742 213.025 258.11 211.466 259 206L249 206M260 209L264 206L260 209z"/>
<path style="fill:#322521; stroke:none;" d="M264 206L264 207L268 207L264 206z"/>
<path style="fill:#686664; stroke:none;" d="M268 206L272 210L272 206L268 206z"/>
<path style="fill:#322521; stroke:none;" d="M272 206C272.581 216.485 286.154 213 294 213C317.281 213 340.648 212 364 212C364 220.705 367.955 242.635 362.397 249.517C358.754 254.027 352.115 253 347 253L310 253L308 260L348 260L348 301L349 301L350 259L351 259L351 302L357 302L357 255L358 255L358 303C372.969 304.223 408.522 311.543 412.686 329C415.997 342.882 407.292 359.859 407 374L414 374L414 206L272 206z"/>
<path style="fill:#fdfdfd; stroke:none;" d="M262 209L262 210L267 209L262 209M268.667 209.333L269.333 209.667L268.667 209.333M254 213L254 214L262 211L254 213z"/>
<path style="fill:#686664; stroke:none;" d="M272 211L273 212L272 211z"/>
<path style="fill:#a59682; stroke:none;" d="M301 213L301.603 240.996L310 252L349 252L362.972 249.427L364 239L364 212L301 213z"/>
<path style="fill:#686664; stroke:none;" d="M273 213L272 218L288 215L287 231C281.646 228.408 276.543 229.033 276 222L275 222L275 227L271 224L270 224L265 225L272 220L272 219L249 232L259 235L258 233L259 233L267 236L267 234L281 231L281 232L278 232L278 233L287 236C280.925 240.432 286.702 258.057 287 265L289 265L288 231L293 234C293 228.324 290.754 217.401 296 214L273 213z"/>
<path style="fill:#a59682; stroke:none;" d="M296 213L293 214C293 224.204 290.739 234.399 300 241L300 213L299 213L299 239L298 239L296 213z"/>
<path style="fill:#686664; stroke:none;" d="M297 213L298 239L299 239L299 213L297 213M300 213L300 241L301 241L300 213z"/>
<path style="fill:#fdfdfd; stroke:none;" d="M249 216L249 217L254 215L249 216z"/>
<path style="fill:#322521; stroke:none;" d="M287 215C279.198 219.163 270.724 216.213 265 225L270 224L271 224L275 227L275 222L276 222C276.241 229.255 281.122 228.854 287 231L287 215z"/>
<path style="fill:#fdfdfd; stroke:none;" d="M246.667 217.333L247.333 217.667L246.667 217.333M202 235L209 223L163 243L163 244L179 237.68L198 241.576L251 254L254 280C267.763 283.249 275.194 274.285 287 268L287 266C277.608 260.877 265.695 254.311 255 253C263.302 245.179 275.904 252.116 283 259L283 234C268.588 231.334 259.214 243.182 246 245.838C238.485 247.348 228.096 242.308 221 240L239.985 231.664L248.796 229.516L246 218C233.103 221.063 215.026 238.882 202 235z"/>
<path style="fill:#686664; stroke:none;" d="M238.667 219.333L239.333 219.667L238.667 219.333z"/>
<path style="fill:#a59682; stroke:none;" d="M240 219L241 220L240 219z"/>
<path style="fill:#322521; stroke:none;" d="M235 220L236 221L235 220z"/>
<path style="fill:#a59682; stroke:none;" d="M237.667 220.333L238.333 220.667L237.667 220.333z"/>
<path style="fill:#ce5532; stroke:none;" d="M255 223L258 220L255 223M259 220L259 224L260 224L259 220z"/>
<path style="fill:#322521; stroke:none;" d="M232.667 221.333L233.333 221.667L232.667 221.333z"/>
<path style="fill:#a59682; stroke:none;" d="M236 221L237 222L236 221z"/>
<path style="fill:#686664; stroke:none;" d="M206 222L207 223L206 222z"/>
<path style="fill:#a59682; stroke:none;" d="M207 222L208 223L207 222z"/>
<path style="fill:#686664; stroke:none;" d="M208 222L209 223L208 222z"/>
<path style="fill:#a59682; stroke:none;" d="M234 222L235 223L234 222z"/>
<path style="fill:#686664; stroke:none;" d="M204 223L205 224L204 223z"/>
<path style="fill:#a59682; stroke:none;" d="M205 223L206 224L205 223z"/>
<path style="fill:#686664; stroke:none;" d="M209.333 223.667L209.667 224.333L209.333 223.667M215 223L216 224L215 223z"/>
<path style="fill:#a59682; stroke:none;" d="M214 224L216 226L210 228L210 227L213 226L213 225L207 226L202 235C209.971 238.6 218.285 230.223 226 228C222.515 223.602 219.404 222.732 214 224z"/>
<path style="fill:#322521; stroke:none;" d="M229.667 223.333L230.333 223.667L229.667 223.333z"/>
<path style="fill:#a59682; stroke:none;" d="M232 223L233 224L232 223z"/>
<path style="fill:#686664; stroke:none;" d="M202 224L203 225L202 224z"/>
<path style="fill:#a59682; stroke:none;" d="M203 224L204 225L203 224z"/>
<path style="fill:#686664; stroke:none;" d="M212.667 224.333L213.333 224.667L212.667 224.333z"/>
<path style="fill:#fdfdfd; stroke:none;" d="M216 224L216 225L220 225L216 224z"/>
<path style="fill:#a59682; stroke:none;" d="M230.667 224.333L231.333 224.667L230.667 224.333z"/>
<path style="fill:#686664; stroke:none;" d="M200 225L201 226L200 225z"/>
<path style="fill:#a59682; stroke:none;" d="M201 225L202 226L201 225z"/>
<path style="fill:#686664; stroke:none;" d="M208 225L208 227L210 227L208 225M211 225L212 226L211 225z"/>
<path style="fill:#fdfdfd; stroke:none;" d="M210 227L210 228L216 226L210 227z"/>
<path style="fill:#a59682; stroke:none;" d="M227.667 225.333L228.333 225.667L227.667 225.333z"/>
<path style="fill:#686664; stroke:none;" d="M198 226L199 227L198 226z"/>
<path style="fill:#a59682; stroke:none;" d="M199 226L200 227L199 226z"/>
<path style="fill:#fdfdfd; stroke:none;" d="M217 226L218 227L217 226z"/>
<path style="fill:#a59682; stroke:none;" d="M226 226L227 227L226 226z"/>
<path style="fill:#686664; stroke:none;" d="M196 227L197 228L196 227z"/>
<path style="fill:#a59682; stroke:none;" d="M197 227L198 228L197 227z"/>
<path style="fill:#686664; stroke:none;" d="M194 228L195 229L194 228z"/>
<path style="fill:#a59682; stroke:none;" d="M195 228L196 229L195 228z"/>
<path style="fill:#fdfdfd; stroke:none;" d="M208.667 228.333L209.333 228.667L208.667 228.333z"/>
<path style="fill:#686664; stroke:none;" d="M192 229L193 230L192 229z"/>
<path style="fill:#a59682; stroke:none;" d="M193 229L194 230L193 229M191 230L192 231L191 230z"/>
<path style="fill:#686664; stroke:none;" d="M188 231L187 233L188 231z"/>
<path style="fill:#a59682; stroke:none;" d="M189.667 231.333L190.333 231.667L189.667 231.333z"/>
<path style="fill:#322521; stroke:none;" d="M274 231L274 232L281 232L274 231z"/>
<path style="fill:#a59682; stroke:none;" d="M288 231L288 258L289 258L289 232L292 234L288 231M188 232L189 233L188 232z"/>
<path style="fill:#322521; stroke:none;" d="M270 232L271 233L270 232z"/>
<path style="fill:#fdfdfd; stroke:none;" d="M289 232C289 249.327 284.882 265.889 302 275C303.671 267.95 310.448 258.245 309.497 251.039C308.613 244.34 294.492 235.175 289 232z"/>
<path style="fill:#a59682; stroke:none;" d="M185 233L186 234L185 233z"/>
<path style="fill:#fdfdfd; stroke:none;" d="M244 236L244 237L252 234L244 236z"/>
<path style="fill:#322521; stroke:none;" d="M258 233L260 235L260 233L258 233z"/>
<path style="fill:#a59682; stroke:none;" d="M280 233L280 234L283 234L280 233z"/>
<path style="fill:#686664; stroke:none;" d="M177 234L178 235L177 234z"/>
<path style="fill:#a59682; stroke:none;" d="M178 234L178 235L181 235L178 234z"/>
<path style="fill:#686664; stroke:none;" d="M181.667 234.333L182.333 234.667L181.667 234.333z"/>
<path style="fill:#a59682; stroke:none;" d="M183.667 234.333L184.333 234.667L183.667 234.333z"/>
<path style="fill:#fdfdfd; stroke:none;" d="M254 234L255 235L254 234z"/>
<path style="fill:#322521; stroke:none;" d="M267.667 234.333L268.333 234.667L267.667 234.333z"/>
<path style="fill:#a59682; stroke:none;" d="M283 234L283 241L284 241L283 234z"/>
<path style="fill:#322521; stroke:none;" d="M284 234C284.513 236.475 284.604 236.575 287 236L284 234z"/>
<path style="fill:#a59682; stroke:none;" d="M176 235L177 236L176 235z"/>
<path style="fill:#686664; stroke:none;" d="M174 236L175 237L174 236z"/>
<path style="fill:#a59682; stroke:none;" d="M175 236L176 237L175 236z"/>
<path style="fill:#fdfdfd; stroke:none;" d="M250 241L250 242L264 237L250 241z"/>
<path style="fill:#686664; stroke:none;" d="M172 237L173 238L172 237z"/>
<path style="fill:#a59682; stroke:none;" d="M173.667 237.333L174.333 237.667L173.667 237.333M177 237L177 238L181 238L177 237z"/>
<path style="fill:#686664; stroke:none;" d="M170 238L171 239L170 238z"/>
<path style="fill:#a59682; stroke:none;" d="M171.667 238.333L172.333 238.667L171.667 238.333M175 238L171 240L171 241L176 239L175 238z"/>
<path style="fill:#ce5532; stroke:none;" d="M140 255L140 256C163.614 259.18 180.349 274.676 202 282L213 275L213 276L204 281L204 282C210.753 283.748 217.417 286.164 224 283C218.298 274.221 219.476 268.678 230 265C231.432 271.447 246.635 279.824 253 279L249.142 255.653L232 250.37L193 241L177 238.51L140 255z"/>
<path style="fill:#a59682; stroke:none;" d="M182 238L182 239L186 239L182 238z"/>
<path style="fill:#686664; stroke:none;" d="M168 239L169 240L168 239z"/>
<path style="fill:#a59682; stroke:none;" d="M169.667 239.333L170.333 239.667L169.667 239.333M186 239L186 240L190 240L186 239z"/>
<path style="fill:#686664; stroke:none;" d="M166 240L167 241L166 240z"/>
<path style="fill:#a59682; stroke:none;" d="M167.667 240.333L168.333 240.667L167.667 240.333M190 240L190 241L194 241L190 240z"/>
<path style="fill:#fdfdfd; stroke:none;" d="M236 240L235 242L236 240z"/>
<path style="fill:#322521; stroke:none;" d="M285 240L287 242L287 240L285 240z"/>
<path style="fill:#686664; stroke:none;" d="M164 241L165 242L164 241z"/>
<path style="fill:#a59682; stroke:none;" d="M165.667 241.333L166.333 241.667L165.667 241.333M169 241L170 242L169 241M195 241L195 242L198 242L195 241M284 241L283 259L282 256C273.167 254.474 262.6 242.185 255 253L287 266L287 268L263 282L271 286L271 278L272 278L272 286L301 287C301 283.279 302.025 277.663 299.972 274.379C295.958 267.956 290.107 269.034 290 260L289 260L289 265L287 265L284 241z"/>
<path style="fill:#686664; stroke:none;" d="M162 242L163 243L162 242z"/>
<path style="fill:#a59682; stroke:none;" d="M163.667 242.333L164.333 242.667L163.667 242.333M167 242L168 243L167 242M199 242L199 243L203 243L199 242z"/>
<path style="fill:#686664; stroke:none;" d="M160 243L159 245L160 243z"/>
<path style="fill:#ce5532; stroke:none;" d="M161 243L162 244L161 243z"/>
<path style="fill:#a59682; stroke:none;" d="M162 243L160 246L154 249L140 254L140 255C144.5 254.64 154.352 251.919 155 247L164 244L162 243M165 243L166 244L165 243M203 243L203 244L207 244L203 243z"/>
<path style="fill:#fdfdfd; stroke:none;" d="M247 243L248 244L247 243M161 244L162 245L161 244z"/>
<path style="fill:#a59682; stroke:none;" d="M207 244L207 245L210 245L207 244z"/>
<path style="fill:#fdfdfd; stroke:none;" d="M159 245L160 246L159 245z"/>
<path style="fill:#a59682; stroke:none;" d="M212 245L212 246L215 246L212 245M215 246L215 247L224 248L215 246z"/>
<path style="fill:#686664; stroke:none;" d="M152.667 247.333L153.333 247.667L152.667 247.333z"/>
<path style="fill:#fdfdfd; stroke:none;" d="M155.667 247.333L156.333 247.667L155.667 247.333z"/>
<path style="fill:#686664; stroke:none;" d="M151 248L152 249L151 248z"/>
<path style="fill:#fdfdfd; stroke:none;" d="M153 248L154 249L153 248z"/>
<path style="fill:#a59682; stroke:none;" d="M225 248L225 249L228 249L225 248z"/>
<path style="fill:#ce5532; stroke:none;" d="M149 249L150 250L149 249z"/>
<path style="fill:#a59682; stroke:none;" d="M228 249L228 250L232 250L228 249z"/>
<path style="fill:#ce5532; stroke:none;" d="M147 250L148 251L147 250z"/>
<path style="fill:#a59682; stroke:none;" d="M232 250L232 251L236 251L232 250z"/>
<path style="fill:#686664; stroke:none;" d="M145 251L146 252L145 251z"/>
<path style="fill:#a59682; stroke:none;" d="M236 251L236 252L244 253L236 251z"/>
<path style="fill:#fdfdfd; stroke:none;" d="M263 251L267 253L263 251z"/>
<path style="fill:#322521; stroke:none;" d="M109 252L109 270L110 270L111 252L109 252M112 252L112 268L113 268L112 252z"/>
<path style="fill:#686664; stroke:none;" d="M143 252L144 253L143 252M310 252L310 253L360 253C347.11 247.591 324.049 252 310 252M140 253L141 254L140 253z"/>
<path style="fill:#a59682; stroke:none;" d="M246.667 253.333L247.333 253.667L246.667 253.333M309 253L310 254L309 253z"/>
<path style="fill:#686664; stroke:none;" d="M139 254L133 258L133 259C135.777 258.223 139.855 257.469 139 254z"/>
<path style="fill:#a59682; stroke:none;" d="M248 254L248 255L250 258L251 258L251 254L248 254z"/>
<path style="fill:#686664; stroke:none;" d="M309.333 254.667L309.667 255.333L309.333 254.667z"/>
<path style="fill:#fdfdfd; stroke:none;" d="M271 255L272 256L271 255z"/>
<path style="fill:#686664; stroke:none;" d="M357 255L357 302L353 302L353 303L363 304L363 303L358 303C358 289.474 362.209 267.414 357 255z"/>
<path style="fill:#a59682; stroke:none;" d="M308 256L309 257L308 256z"/>
<path style="fill:#686664; stroke:none;" d="M308 257L309 258L308 257z"/>
<path style="fill:#a59682; stroke:none;" d="M307.333 258.667L307.667 259.333L307.333 258.667z"/>
<path style="fill:#686664; stroke:none;" d="M126 262L126 263L133 260L126 262M350 259L349 301L348 301L348 260L307 260L307 262L347 261L346 302L351 302C351 289.781 354.71 270.226 350 259z"/>
<path style="fill:#a59682; stroke:none;" d="M251 260L251 267L252 267L251 260M306.333 261.667L306.667 262.333L306.333 261.667z"/>
<path style="fill:#322521; stroke:none;" d="M346 261L307 262L306 267C317.176 267 333.212 269.996 343 264L343 301L344 301L344 263L345 263L345 301L347 301C347 289.566 350.411 271.512 346 261z"/>
<path style="fill:#a59682; stroke:none;" d="M233 263L234 264L233 263z"/>
<path style="fill:#686664; stroke:none;" d="M306 263L304 269L336 268L336 269L324.603 277.376L322 299L322 300L343 301L343 264C331.916 269.173 318.01 267 306 267L306 263M344 263L344 301L345 301C345 290.089 348.211 273.036 344 263z"/>
<path style="fill:#a59682; stroke:none;" d="M230 264L231 265L230 264M305 264L306 265L305 264M228 265L236 273L236 274L227 266C222.993 267.375 218.986 270.139 219.337 274.985C219.573 278.238 223.036 282.558 226 280L245 280L241 276C241 279.903 237.086 275.531 236 274L240 276L240 275L230 265L228 265z"/>
<path style="fill:#fdfdfd; stroke:none;" d="M226 267L236 274L236 273L228 266L226 267z"/>
<path style="fill:#a59682; stroke:none;" d="M252 267L253 281L262 284L254 280L252 267M304 267L305 268L304 267z"/>
<path style="fill:#322521; stroke:none;" d="M302 287L312 282L318 320L319 320L320 278L321 278L321 299L324 299C324 284.388 322.653 277.31 336 269C330.976 266.892 308.855 265.418 304.924 269.603C300.973 273.81 302 281.761 302 287z"/>
<path style="fill:#686664; stroke:none;" d="M233.333 269.667L233.667 270.333L233.333 269.667z"/>
<path style="fill:#a59682; stroke:none;" d="M303.333 269.667L303.667 270.333L303.333 269.667z"/>
<path style="fill:#322521; stroke:none;" d="M234 270L235 271L234 270z"/>
<path style="fill:#a59682; stroke:none;" d="M276 270L277 271L276 270M218 271L213 274L213 275L218 271z"/>
<path style="fill:#322521; stroke:none;" d="M235 271L235 272L244 277L244 276L235 271z"/>
<path style="fill:#686664; stroke:none;" d="M303.333 271.667L303.667 272.333L303.333 271.667M236 272L237 273L236 272z"/>
<path style="fill:#a59682; stroke:none;" d="M302.333 272.667L302.667 273.333L302.333 272.667z"/>
<path style="fill:#686664; stroke:none;" d="M237 273L238 274L237 273z"/>
<path style="fill:#fdfdfd; stroke:none;" d="M236 274L242 278L242 277L236 274z"/>
<path style="fill:#686664; stroke:none;" d="M302 274L303 275L302 274z"/>
<path style="fill:#a59682; stroke:none;" d="M202 282L213 276C208.897 275.402 204.203 278.626 202 282z"/>
<path style="fill:#686664; stroke:none;" d="M240 275L241 276L240 275M301 275L301 287L293 284L293 299L312 299L312 282L302 287L301 275z"/>
<path style="fill:#322521; stroke:none;" d="M244 277C249.823 284.545 266.601 297.33 276 299.556C281.046 300.75 287.735 299 293 299C293 295.3 294.436 287.764 291.972 284.743C288.97 281.061 281.639 284.881 278 285.535C269.202 287.118 257.195 287.11 252 279L244 277M114 278C115.135 292.382 131.202 306.099 146 308.157C153.645 309.221 162.414 306.229 170 305.285C176.064 304.53 182.428 304.682 188 302L187 294L114 278z"/>
<path style="fill:#fdfdfd; stroke:none;" d="M242 278L243 279L242 278z"/>
<path style="fill:#a59682; stroke:none;" d="M260 278L262 280L260 278z"/>
<path style="fill:#686664; stroke:none;" d="M271 278L271 286L272 286L271 278M320 278L318 303L319 303C321.208 295.925 322.96 285.055 320 278z"/>
<path style="fill:#ce5532; stroke:none;" d="M236.667 279.333L237.333 279.667L236.667 279.333z"/>
<path style="fill:#686664; stroke:none;" d="M252 279L253 280L252 279z"/>
<path style="fill:#ce5532; stroke:none;" d="M226 280L227 281L226 280M231 280L232 281L231 280z"/>
<path style="fill:#686664; stroke:none;" d="M315 280C312.815 287.393 313.378 296.804 316 304L317 304L315 280M253 281C255.772 285.302 260.63 286.964 265 284L253 281z"/>
<path style="fill:#322521; stroke:none;" d="M205 318L252 303L252 301C243.034 295.577 241.112 290.402 236 282L216 284.493L202.603 283.067L201.579 292L205 318z"/>
<path style="fill:#686664; stroke:none;" d="M265.667 285.333L266.333 285.667L265.667 285.333z"/>
<path style="fill:#a59682; stroke:none;" d="M286 299L286 300C293.44 300 306.501 297.385 312 303C312.987 296.382 290.75 299 286 299M320.667 299.333L321.333 299.667L320.667 299.333M282 300L287 313L288 313L282 300z"/>
<path style="fill:#fdfdfd; stroke:none;" d="M283 300C287.311 312.052 290.521 321.034 290 334C294.931 334.146 299.884 335.272 300 341L314 344L314 343C311.925 342.668 310.059 342.386 308.285 341.142C294.25 331.303 315.075 318.715 317 336L324 337L322 341L323 342C325.558 339.862 328.348 336.304 331.986 336.306C339.18 336.309 337.847 342.72 333 345L333 346L342 347L342 342L341 338C345.579 340.14 348.684 338.095 353 336L351 333L351 332L362 324.298L369.396 322.817L373 315L373 314L321 304L321 302L322 301L327 302L319 300C320.962 308.239 321.658 321.12 316 328C317.341 320.777 318.341 304.326 309.787 300.603C302.885 297.599 290.499 300 283 300z"/>
<path style="fill:#686664; stroke:none;" d="M312 300L313 301L312 300z"/>
<path style="fill:#a59682; stroke:none;" d="M322 301L321 302L321 304L350 308.275L373 314L373 315L370 315C371.697 324.732 357.853 325.689 351 332L351 333L353 336L341 338L342 342L342 347L333 346L334 344L333 344C325.196 348.915 320.467 351.093 312 347L312 346L323 342L324 337L317 336L317 331L316 331L319 338L313 336L312 337L314 341L303 336C305.98 340.371 308.674 342.513 314 343L314 344L300 341L297 350L290 348C290.915 353.734 294.75 354.663 299 351C301.812 355.814 306.98 354.999 312 355L312 357L298 357L298 358L328 358L316 362C325.064 362 335.067 360.173 343 365L335 356L342 357L342 356L334 351L338 352L338 351L334 350L334 349L340 350L339 353L350 355L350 352L341 349L353 349L352 345L367 348L367 349L355 346L354 350L359 351L358 354L355 353L354 357L355 357L355 354C360.856 357.521 364.253 358.27 371 358C368.864 365.225 374.403 377.918 367 382L367 383C375.415 383 395.59 386.743 402.567 381.972C405.782 379.774 405.946 373.49 406.576 370C408.533 359.146 411.132 347.989 412 337L411 337C400.842 349.723 383.866 352.338 369 356L369 355L372 354L372 353L367 354L368 356L359 355L359 354C364.842 355.825 366.803 352.629 372.004 350.558C380.441 347.199 400.134 342.908 399.762 331C399.477 321.89 388.214 318.648 383 313C385.866 314.323 390.815 317.989 393 315L401 318C381.949 300.164 345.576 302.572 322 301M319 301L319 321L320 321L319 301M308 304L311 304L310 302L308 304z"/>
<path style="fill:#686664; stroke:none;" d="M313.333 302.667L313.667 303.333L313.333 302.667z"/>
<path style="fill:#a59682; stroke:none;" d="M305.667 303.333L306.333 303.667L305.667 303.333M313 304L314 305L313 304z"/>
<path style="fill:#686664; stroke:none;" d="M364 304L364 305L367 305L364 304M314 305L315 306L314 305M369 305L369 306L376 307L369 305z"/>
<path style="fill:#a59682; stroke:none;" d="M314 306L315 307L314 306z"/>
<path style="fill:#686664; stroke:none;" d="M315 307L316 308L315 307M377.667 307.333L378.333 307.667L377.667 307.333z"/>
<path style="fill:#a59682; stroke:none;" d="M315.333 308.667L315.667 309.333L315.333 308.667z"/>
<path style="fill:#686664; stroke:none;" d="M380 308L380 309L386 310L386 309L380 308M316.333 309.667L316.667 310.333L316.333 309.667M386 310L386 311L389 311L386 310z"/>
<path style="fill:#322521; stroke:none;" d="M270 311L271 312L270 311z"/>
<path style="fill:#a59682; stroke:none;" d="M316 311L316 314L317 314L316 311z"/>
<path style="fill:#686664; stroke:none;" d="M389 311L391 313L391 311L389 311M382 312L383 313L382 312M392.667 312.333L393.333 312.667L392.667 312.333z"/>
<path style="fill:#322521; stroke:none;" d="M271 313L269 327C277.545 323.408 278.047 319.127 271 313z"/>
<path style="fill:#686664; stroke:none;" d="M383 313C387.017 319.573 399.06 321.92 399.508 331C400.073 342.479 378.981 347.347 371.015 350.558C366.133 352.526 364.496 355.256 359 354L359 355L368 356L367 354L372 353L372 354L369 355L369 356C380.271 353.869 392 351.584 402 345.611C404.219 344.286 410.835 338.006 412 339L413 339C413 327.359 410.438 318.686 398 315L398 316L401 317L401 318L393 315L383 313M394.667 313.333L395.333 313.667L394.667 313.333z"/>
<path style="fill:#322521; stroke:none;" d="M236 314L237 315L236 314z"/>
<path style="fill:#a59682; stroke:none;" d="M288 314L288 317L289 317L288 314z"/>
<path style="fill:#686664; stroke:none;" d="M317 314L317 317L318 317L317 314M391 314L392 315L391 314M396.667 314.333L397.333 314.667L396.667 314.333z"/>
<path style="fill:#322521; stroke:none;" d="M244 350L244 349L241 347L249 343L232 342L232 340L235 339L232 331L235 327L232 326L234 315C224.921 316.229 203.067 324.351 212.653 336.826C218.966 345.042 234.199 348.702 244 350z"/>
<path style="fill:#a59682; stroke:none;" d="M289 317L291 323L289 317M317 317L316 328C319.38 325.253 318.742 320.655 317 317z"/>
<path style="fill:#322521; stroke:none;" d="M204 318L203 320L204 318z"/>
<path style="fill:#686664; stroke:none;" d="M318.333 320.667L318.667 321.333L318.333 320.667z"/>
<path style="fill:#322521; stroke:none;" d="M200 321L199 323L200 321M176 322L174.566 343.961L146 370L154 374L137 375L137 377L171 379L171 380L142 380L131.028 381.742L130 408L248 408L248 401C234.588 399.194 209.857 393.165 203.178 379.999C196.917 367.658 199.512 348.53 197 335L188 335L199 323L183 324L183 339L182 339L182 323L180 323C180 329.935 181.212 337.145 177 343L176 322z"/>
<path style="fill:#a59682; stroke:none;" d="M407 322L408 323L407 322M290 325L290 329L291 329L290 325M307 326L307 327L316 330L307 326M305 327L302 335L303 335L305 327z"/>
<path style="fill:#686664; stroke:none;" d="M306 327L304 329L303 336L304 336L306 335L310 328L306 327z"/>
<path style="fill:#322521; stroke:none;" d="M310.667 327.333L311.333 327.667L310.667 327.333z"/>
<path style="fill:#686664; stroke:none;" d="M311 328L312 331L315 333L316 333L313 327L311 328z"/>
<path style="fill:#fdfdfd; stroke:none;" d="M363 327L364 328L363 327z"/>
<path style="fill:#686664; stroke:none;" d="M233 328L234 329L233 328z"/>
<path style="fill:#322521; stroke:none;" d="M305 328L305 330L307 328L305 328z"/>
<path style="fill:#a59682; stroke:none;" d="M310 338L308 331L313 330L313 329L310 330L311 328C305.185 330.049 304.35 334.956 310 338z"/>
<path style="fill:#fdfdfd; stroke:none;" d="M310.667 329.333L311.333 329.667L310.667 329.333z"/>
<path style="fill:#322521; stroke:none;" d="M236 330C234.463 336.662 242.396 339.919 248 341C250.873 331.732 242.925 331.668 236 330M304 330L305 331L304 330M310 337L316 335L315 330C310.796 331.134 308.989 332.546 310 337M286 331L278 333L278 335L287 335L286 331z"/>
<path style="fill:#fdfdfd; stroke:none;" d="M308 331L309 332L308 331z"/>
<path style="fill:#686664; stroke:none;" d="M309 331L310 332L309 331z"/>
<path style="fill:#fdfdfd; stroke:none;" d="M356 331L357 332L356 331z"/>
<path style="fill:#322521; stroke:none;" d="M275 332L276 333L275 332z"/>
<path style="fill:#fdfdfd; stroke:none;" d="M367 342C370.734 349.747 376.762 347.623 383 344C379.538 340.86 376.578 339.019 377 334L373 336L374 342L373 342L373 334C369.891 334.166 364.145 331.488 361.603 333.132C356.388 336.505 362.801 342.6 367 342z"/>
<path style="fill:#686664; stroke:none;" d="M367 332L367 333L370 333L367 332z"/>
<path style="fill:#fdfdfd; stroke:none;" d="M379 332L380 333L379 332z"/>
<path style="fill:#686664; stroke:none;" d="M239 333L240 334L239 333M308 333L308 336L309 336L308 333M379 333L377 337L378 337L379 333z"/>
<path style="fill:#a59682; stroke:none;" d="M290 334L290 335L298 336L290 334z"/>
<path style="fill:#322521; stroke:none;" d="M304 334L308 339L304 334z"/>
<path style="fill:#a59682; stroke:none;" d="M347.333 334.667L347.667 335.333L347.333 334.667z"/>
<path style="fill:#322521; stroke:none;" d="M379 334C377.278 338.898 379.049 340.988 384 342L384 341L380 338L386 339L379 334z"/>
<path style="fill:#686664; stroke:none;" d="M381 334L382 335L381 334z"/>
<path style="fill:#322521; stroke:none;" d="M295 347L295 346C291.508 344.943 290.568 343.582 290 340L293 343L299 343C298.019 325.139 277.017 346.411 295 347z"/>
<path style="fill:#686664; stroke:none;" d="M313 335L314 336L313 335M315 335C315.546 337.815 316.143 338.081 319 338L315 335z"/>
<path style="fill:#a59682; stroke:none;" d="M331.667 335.333L332.333 335.667L331.667 335.333z"/>
<path style="fill:#fdfdfd; stroke:none;" d="M356 337L359 335L356 337z"/>
<path style="fill:#686664; stroke:none;" d="M382 335L383 336L382 335M298 336L299 340L300 340L298 336z"/>
<path style="fill:#a59682; stroke:none;" d="M299.333 336.667L299.667 337.333L299.333 336.667z"/>
<path style="fill:#686664; stroke:none;" d="M306 336L307 337L306 336M309 336L310 337L309 336M307 339L307 340L314 341L313 336L307 339z"/>
<path style="fill:#a59682; stroke:none;" d="M329 336L330 337L329 336z"/>
<path style="fill:#686664; stroke:none;" d="M326 340L334 337C330.482 335.795 328.341 337.346 326 340z"/>
<path style="fill:#a59682; stroke:none;" d="M334 336L337 338L337 337L334 336z"/>
<path style="fill:#686664; stroke:none;" d="M383.667 336.333L384.333 336.667L383.667 336.333M232.667 337.333L233.333 337.667L232.667 337.333M307 337L308 338L307 337z"/>
<path style="fill:#a59682; stroke:none;" d="M327 337L328 338L327 337z"/>
<path style="fill:#322521; stroke:none;" d="M325 343C328.481 340.849 330.693 338.972 334 342L327 347L338 342C334.286 335.38 328.366 336.867 325 343z"/>
<path style="fill:#a59682; stroke:none;" d="M340 337L341 338L340 337z"/>
<path style="fill:#686664; stroke:none;" d="M386 337L380 338C382.784 341.313 384.874 342.653 389 341L389 340L386 337M296 338L296 340L298 340L298 338L296 338z"/>
<path style="fill:#a59682; stroke:none;" d="M300 338L301 339L300 338z"/>
<path style="fill:#686664; stroke:none;" d="M306 338L307 339L306 338z"/>
<path style="fill:#fdfdfd; stroke:none;" d="M320 338L320 340L322 338L320 338z"/>
<path style="fill:#a59682; stroke:none;" d="M326 338L327 339L326 338z"/>
<path style="fill:#686664; stroke:none;" d="M336 338L337 339L336 338z"/>
<path style="fill:#a59682; stroke:none;" d="M325 339L324 342L325 339z"/>
<path style="fill:#686664; stroke:none;" d="M329 339L329 340L334 341L329 339z"/>
<path style="fill:#a59682; stroke:none;" d="M337 339L335 343L335 344C338.065 342.982 338.886 341.761 337 339z"/>
<path style="fill:#686664; stroke:none;" d="M377 339L378 340L377 339z"/>
<path style="fill:#a59682; stroke:none;" d="M382 339L383 340L382 339M291 340L291 345L297 344L297 343L291 340M299 340L300 341L299 340M327 344L334 342C330.763 339.57 328.497 340.279 327 344z"/>
<path style="fill:#686664; stroke:none;" d="M337 340L338 341L337 340M378 340L379 341L378 340z"/>
<path style="fill:#a59682; stroke:none;" d="M385 340L386 341L385 340z"/>
<path style="fill:#322521; stroke:none;" d="M387 340L388 341L387 340z"/>
<path style="fill:#686664; stroke:none;" d="M292 341L293 342L292 341M325 341L326 342L325 341M327 341L328 342L327 341M330 341L331 342L330 341z"/>
<path style="fill:#a59682; stroke:none;" d="M379 341L380 342L379 341z"/>
<path style="fill:#686664; stroke:none;" d="M380 341L381 342L380 341z"/>
<path style="fill:#322521; stroke:none;" d="M386 341L387 342L386 341z"/>
<path style="fill:#686664; stroke:none;" d="M411 341L411 345L412 345L411 341M231 342L230 344L231 342z"/>
<path style="fill:#322521; stroke:none;" d="M269 342L261 344L261 345C265.197 346.849 267.667 347.957 272 346L269 342z"/>
<path style="fill:#686664; stroke:none;" d="M312 346L312 347C318.833 351.686 321.625 348.96 329 348L329 347L327 342L312 346M329 342L330 343L329 342M337 342L338 343L337 342M360 342L363 344L363 343L360 342M328 343L329 344L328 343M333.667 343.333L334.333 343.667L333.667 343.333M331 344L332 345L331 344z"/>
<path style="fill:#fdfdfd; stroke:none;" d="M352 345L353 349L354 349L355 346L367 349C362.651 344.757 357.847 344.035 352 345z"/>
<path style="fill:#686664; stroke:none;" d="M364 345L364 346L369 347L364 345z"/>
<path style="fill:#a59682; stroke:none;" d="M367 344L368 345L367 344M321 345L321 346L324 346L321 345z"/>
<path style="fill:#686664; stroke:none;" d="M330 345L331 346L330 345z"/>
<path style="fill:#a59682; stroke:none;" d="M368 345L369 346L368 345z"/>
<path style="fill:#686664; stroke:none;" d="M300 347L300 348L304 347L300 347M329 346L330 347L329 346M345 346L346 347L345 346M334 347L334 348L341 349L334 347z"/>
<path style="fill:#a59682; stroke:none;" d="M389 347L390 348L389 347z"/>
<path style="fill:#686664; stroke:none;" d="M410 347L410 351L411 351L410 347z"/>
<path style="fill:#fdfdfd; stroke:none;" d="M303 348L301 353L305 348L303 348M308 348L317 353L308 348z"/>
<path style="fill:#322521; stroke:none;" d="M245 350L245 351L259 353L245 350z"/>
<path style="fill:#686664; stroke:none;" d="M292.667 349.333L293.333 349.667L292.667 349.333z"/>
<path style="fill:#fdfdfd; stroke:none;" d="M330 354L331 350C327.829 349.022 325.855 353.107 330 354M334 349L334 350L340 352L334 349z"/>
<path style="fill:#686664; stroke:none;" d="M341 349L346 351L345 353L350 352L349 356L351 353C354.44 353.477 356.915 354.019 359 351L341 349M325.667 350.333L326.333 350.667L325.667 350.333M333 350L334 351L333 350z"/>
<path style="fill:#322521; stroke:none;" d="M270 351L270 352C275.655 354.768 284.833 357.541 291 356L291 354L290 353L270 351z"/>
<path style="fill:#686664; stroke:none;" d="M334 351L342 356L342 357L335 356L341 362L339 359L342 360L344 354L334 351z"/>
<path style="fill:#322521; stroke:none;" d="M344.667 351.333L345.333 351.667L344.667 351.333z"/>
<path style="fill:#686664; stroke:none;" d="M360 351L361 352L360 351z"/>
<path style="fill:#a59682; stroke:none;" d="M374 351L374 352L377 352L374 351z"/>
<path style="fill:#686664; stroke:none;" d="M310 352L310 353L313 353L310 352M362 352L362 353L366 353L362 352M409 352L409 357L410 357L409 352M315 353L319 356L315 353M322 356L330 356C327.064 353.948 324.346 352.824 322 356z"/>
<path style="fill:#fdfdfd; stroke:none;" d="M344 353L345 354L344 353z"/>
<path style="fill:#322521; stroke:none;" d="M351 356L343 355L342 360L339 359C345.217 369.166 353.163 362.51 354 353L351 356z"/>
<path style="fill:#686664; stroke:none;" d="M332 354L333 355L332 354z"/>
<path style="fill:#fdfdfd; stroke:none;" d="M355 354C351.779 367.399 346.599 362.707 337 361.599C330.361 360.832 322.753 362 316 362L317 359L328 358L291 357C291 362.712 288.626 379.04 293.603 382.972C297.031 385.68 306.899 384.198 311 383.715C324.817 382.084 339.088 383 353 383C357.483 383 365.826 384.508 369.397 381.142C373.708 377.077 369.618 363.804 371 358L355 354z"/>
<path style="fill:#322521; stroke:none;" d="M294 355L294 356L300 356L294 355M302 355L303 356L302 355z"/>
<path style="fill:#686664; stroke:none;" d="M345 355L346 356L345 355z"/>
<path style="fill:#a59682; stroke:none;" d="M108 357L108 358L114 358L108 357M290 357L290 360L291 360L290 357M295.667 357.333L296.333 357.667L295.667 357.333z"/>
<path style="fill:#686664; stroke:none;" d="M353.333 357.667L353.667 358.333L353.333 357.667z"/>
<path style="fill:#a59682; stroke:none;" d="M115 358L115 359L120 359L115 358z"/>
<path style="fill:#322521; stroke:none;" d="M338 358L339 359L338 358z"/>
<path style="fill:#686664; stroke:none;" d="M408.333 358.667L408.667 359.333L408.333 358.667z"/>
<path style="fill:#a59682; stroke:none;" d="M120 359L120 360L124 360L120 359M353 359L354 360L353 359M124 360L124 361L132 363L124 360z"/>
<path style="fill:#686664; stroke:none;" d="M352 360L353 361L352 360z"/>
<path style="fill:#a59682; stroke:none;" d="M352 361L353 362L352 361z"/>
<path style="fill:#686664; stroke:none;" d="M351 362L352 363L351 362z"/>
<path style="fill:#a59682; stroke:none;" d="M132.667 363.333L133.333 363.667L132.667 363.333M290 363L290 369L291 369L290 363z"/>
<path style="fill:#686664; stroke:none;" d="M350 363L351 364L350 363z"/>
<path style="fill:#a59682; stroke:none;" d="M134 364L135 378L136 378L137 366L138 366L138 375L141 368L142 368L144 371L145 370L134 364z"/>
<path style="fill:#686664; stroke:none;" d="M343 364L344 365L343 364M348 364L349 365L348 364z"/>
<path style="fill:#a59682; stroke:none;" d="M349 364L350 365L349 364z"/>
<path style="fill:#686664; stroke:none;" d="M407 364L407 368L408 368L407 364z"/>
<path style="fill:#a59682; stroke:none;" d="M345 365L345 366L348 366L345 365z"/>
<path style="fill:#fdfdfd; stroke:none;" d="M137 366L136 377L137 377L137 366M141 368L143 372L141 368z"/>
<path style="fill:#a59682; stroke:none;" d="M348 370C350.158 373.332 352.728 373.14 355 370L348 370z"/>
<path style="fill:#686664; stroke:none;" d="M406 370L405 379L406 379L406 375L414 375L414 374L407 374L406 370z"/>
<path style="fill:#a59682; stroke:none;" d="M291 375L291 383L292 383L291 375z"/>
<path style="fill:#322521; stroke:none;" d="M406 375C403.715 387.583 386.808 393.768 376 397.329C343.413 408.068 310.613 406 277 406L277 408L414 408L414 375L406 375z"/>
<path style="fill:#686664; stroke:none;" d="M133 379L133 380L171 380C163.407 374.35 141.306 375.003 133 379M404 380L405 381L404 380M403 382L404 383L403 382z"/>
<path style="fill:#a59682; stroke:none;" d="M292 383L305 385L305 384L292 383M312 383L312 384L356 384C344.537 379.19 324.48 383 312 383z"/>
<path style="fill:#322521; stroke:none;" d="M385 387L386 388L385 387M388 389L388 390L392 389L388 389M249 402L249 408L266 408L266 404L249 402M268 405L268 408L276 408L276 405L268 405z"/>
</svg>
