<?xml version="1.0" encoding="iso-8859-1"?>
<!-- Generator: Adobe Illustrator 19.0.0, SVG Export Plug-In . SVG Version: 6.00 Build 0)  -->
<svg version="1.1" id="Layer_1" xmlns="http://www.w3.org/2000/svg" xmlns:xlink="http://www.w3.org/1999/xlink" x="0px" y="0px"
	 viewBox="0 0 512 512" style="enable-background:new 0 0 512 512;" xml:space="preserve">
<path style="fill:#F95428;" d="M164.356,376.017l-0.012,0.012L123.053,512l-30.238-51.931l-31.286-9.593l-9.593-31.286
	L0.006,388.953l135.983-41.29l0.012-0.012c4.042,5.239,8.47,10.279,13.273,15.081C154.077,367.535,159.116,371.976,164.356,376.017z
	"/>
<polygon style="fill:#E54728;" points="149.274,362.732 92.815,460.069 123.053,512 164.343,376.03 "/>
<path style="fill:#F95428;" d="M511.994,123.047l-135.97,41.29l-0.012,0.012c-4.042-5.239-8.47-10.279-13.273-15.081
	c-4.803-4.803-9.842-9.231-15.069-13.285L388.947,0l30.25,51.918l31.273,9.605l9.618,31.273L511.994,123.047z"/>
<path style="fill:#F7B239;" d="M380.422,159.938c47.727,61.648,43.298,150.628-13.273,207.211
	c-56.584,56.584-145.55,61.012-207.211,13.285c-5.239-4.042-10.279-8.483-15.081-13.285c-4.803-4.803-9.231-9.842-13.273-15.081
	C83.845,290.42,88.273,201.44,144.857,144.857C201.44,88.286,290.42,83.857,352.08,131.572c5.227,4.054,10.266,8.483,15.069,13.285
	C371.952,149.659,376.38,154.699,380.422,159.938z"/>
<circle style="fill:#F95428;" cx="255.998" cy="255.998" r="120.452"/>
<g>
	<path style="fill:#A51C0A;" d="M312.826,312.829c-10.211,10.211-22.55,18.29-36.324,23.54c-3.999,1.526-8.542,0.553-11.574-2.479
		l-1.259-1.259c-12.558,10.646-31.59,10.339-43.782-0.868c-7.248-6.661-11.142-16.113-10.686-25.935
		c0.016-0.356-0.1-0.692-0.282-0.818c-3.473-2.388-6.752-5.117-9.747-8.112c-13.089-13.089-20.276-30.492-20.238-49.003
		c0.037-18.413,7.223-35.705,20.237-48.72c0.069-0.069,0.135-0.135,0.205-0.203c26.502-26.286,69.881-26.558,96.7-0.605
		c3.323,3.218,6.326,6.765,8.923,10.541c0.135,0.195,0.467,0.314,0.827,0.298c9.821-0.458,19.273,3.437,25.935,10.683
		c11.208,12.194,11.516,31.223,0.869,43.785l1.259,1.259c3.031,3.031,4.004,7.576,2.477,11.576
		C331.117,290.275,323.035,302.618,312.826,312.829z M274.464,316.961c18.859-8.497,33.999-23.64,42.496-42.496l-0.654-0.654
		c-2.769-2.769-4.291-6.601-4.176-10.515c0.116-3.914,1.877-7.655,4.788-10.254c0.4-0.354,0.786-0.74,1.145-1.135
		c4.926-5.449,4.89-13.95-0.08-19.358c-2.902-3.157-7.018-4.854-11.289-4.655c-6.885,0.321-13.281-2.814-17.113-8.384l0,0
		c-1.895-2.754-4.088-5.345-6.519-7.699c-19.552-18.922-51.183-18.723-70.509,0.445c-0.05,0.05-0.1,0.1-0.15,0.148
		c-9.492,9.492-14.731,22.1-14.758,35.528c-0.027,13.498,5.213,26.189,14.758,35.733c2.189,2.189,4.584,4.183,7.118,5.924
		c5.564,3.825,8.693,10.219,8.373,17.106c-0.198,4.272,1.499,8.388,4.657,11.289c5.406,4.97,13.908,5.005,19.354,0.081
		c0.4-0.362,0.785-0.747,1.14-1.149c2.6-2.939,6.338-4.669,10.251-4.785c3.913-0.115,7.747,1.407,10.515,4.176L274.464,316.961z"/>
	<circle style="fill:#A51C0A;" cx="286.136" cy="254.576" r="9.356"/>
	<circle style="fill:#A51C0A;" cx="254.489" cy="286.236" r="9.356"/>
	<circle style="fill:#A51C0A;" cx="282.369" cy="282.431" r="9.356"/>
</g>
<g>
</g>
<g>
</g>
<g>
</g>
<g>
</g>
<g>
</g>
<g>
</g>
<g>
</g>
<g>
</g>
<g>
</g>
<g>
</g>
<g>
</g>
<g>
</g>
<g>
</g>
<g>
</g>
<g>
</g>
</svg>
